<svg width="32" height="29" viewBox="0 0 32 29" fill="none" xmlns="http://www.w3.org/2000/svg">
<path fill-rule="evenodd" clip-rule="evenodd" d="M4 3C1.79086 3 0 4.79086 0 7V25C0 27.2091 1.79086 29 4 29H28C30.2091 29 32 27.2091 32 25V7C32 4.79086 30.2091 3 28 3H25.1569C24.096 3 23.0786 2.57857 22.3284 1.82843L21.6716 1.17157C20.9214 0.421427 19.904 0 18.8431 0H12.1569C11.096 0 10.0786 0.421428 9.32843 1.17157L8.67157 1.82843C7.92143 2.57857 6.90401 3 5.84315 3H4ZM8 16C8 11.5817 11.5817 8 16 8C20.4183 8 24 11.5817 24 16C24 20.4183 20.4183 24 16 24C11.5817 24 8 20.4183 8 16ZM11 16C11 13.2386 13.2386 11 16 11C18.7614 11 21 13.2386 21 16C21 18.7614 18.7614 21 16 21C13.2386 21 11 18.7614 11 16Z" fill="#044884"/>
</svg>
