<svg width="40" height="39" viewBox="0 0 40 39" fill="none" xmlns="http://www.w3.org/2000/svg">
<path fill-rule="evenodd" clip-rule="evenodd" d="M5 0C2.23858 0 0 2.23858 0 5V31C0 33.7614 2.23858 36 5 36H31L20.7014 25.7014V19.7014H26.7014L37 30V5C37 2.23858 34.7614 0 32 0H5ZM31 5H6V9H31V5ZM6 13H17V17H6V13Z" fill="#044884"/>
<path d="M22.7678 25.3033V21.7678H26.3033L36.2028 31.6673L32.6673 35.2028L22.7678 25.3033Z" fill="#044884"/>
<path d="M33.7279 36.2635L37.2634 32.7279L38.6777 34.1421C39.0682 34.5327 39.0682 35.1658 38.6777 35.5563L36.5563 37.6777C36.1658 38.0682 35.5326 38.0682 35.1421 37.6777L33.7279 36.2635Z" fill="#044884"/>
</svg>
